<svg xmlns="http://www.w3.org/2000/svg" xmlns:xlink="http://www.w3.org/1999/xlink" width="500" zoomAndPan="magnify" viewBox="0 0 375 374.999991" height="500" preserveAspectRatio="xMidYMid meet" version="1.0"><defs><g/><clipPath id="2605c3f083"><path d="M 149.671875 110.40625 L 225.289062 110.40625 L 225.289062 186.117188 L 149.671875 186.117188 Z M 149.671875 110.40625 " clip-rule="nonzero"/></clipPath><clipPath id="a48c0170ec"><path d="M 149.539062 110.386719 L 211 110.386719 L 211 179 L 149.539062 179 Z M 149.539062 110.386719 " clip-rule="nonzero"/></clipPath></defs><g fill="#ffffff" fill-opacity="1"><g transform="translate(39.969428, 213.894705)"><g><path d="M 8.023438 0.1875 C 10.792969 0.1875 13.1875 -1.371094 14.375 -3.652344 L 11.722656 -5.023438 C 11.046875 -3.699219 9.675781 -2.816406 8.023438 -2.816406 C 5.675781 -2.816406 3.882812 -4.628906 3.882812 -6.976562 C 3.882812 -9.328125 5.675781 -11.140625 8.023438 -11.140625 C 9.675781 -11.140625 11.046875 -10.257812 11.722656 -8.933594 L 14.375 -10.304688 C 13.1875 -12.582031 10.792969 -14.140625 8.023438 -14.140625 C 4.070312 -14.140625 0.859375 -10.933594 0.859375 -6.976562 C 0.859375 -3.023438 4.070312 0.1875 8.023438 0.1875 Z M 8.023438 0.1875 "/></g></g></g><g fill="#ffffff" fill-opacity="1"><g transform="translate(57.290987, 213.894705)"><g><path d="M 9.769531 -13.957031 L 6.441406 -3.976562 L 3.117188 -13.957031 L -0.300781 -13.957031 L 4.722656 0 L 8.164062 0 L 13.1875 -13.957031 Z M 9.769531 -13.957031 "/></g></g></g><g fill="#ffffff" fill-opacity="1"><g transform="translate(72.519571, 213.894705)"><g><path d="M 3.140625 0.1875 C 4.070312 0.1875 4.863281 -0.582031 4.863281 -1.511719 C 4.863281 -2.441406 4.070312 -3.210938 3.140625 -3.210938 C 2.234375 -3.210938 1.464844 -2.441406 1.464844 -1.511719 C 1.464844 -0.582031 2.234375 0.1875 3.140625 0.1875 Z M 3.140625 0.1875 "/></g></g></g><g fill="#ffffff" fill-opacity="1"><g transform="translate(81.166906, 213.894705)"><g/></g></g><g fill="#ffffff" fill-opacity="1"><g transform="translate(89.093333, 213.894705)"><g><path d="M 13.539062 -13.957031 L 9.09375 -4.304688 L 4.699219 -13.957031 L 1.371094 -13.957031 L 1.371094 0 L 4.441406 0 L 4.441406 -8.328125 L 8.210938 0 L 9.980469 0 L 13.769531 -8.304688 L 13.769531 0 L 16.839844 0 L 16.839844 -13.957031 Z M 13.539062 -13.957031 "/></g></g></g><g fill="#ffffff" fill-opacity="1"><g transform="translate(109.647374, 213.894705)"><g><path d="M 9.910156 0 L 13.1875 0 L 8.164062 -13.957031 L 4.722656 -13.957031 L -0.300781 0 L 2.976562 0 L 3.839844 -2.628906 L 9.046875 -2.628906 Z M 4.652344 -5.1875 L 6.441406 -10.722656 L 8.234375 -5.1875 Z M 4.652344 -5.1875 "/></g></g></g><g fill="#ffffff" fill-opacity="1"><g transform="translate(124.875955, 213.894705)"><g><path d="M 10.117188 -13.957031 L 10.117188 -8.351562 L 4.441406 -8.351562 L 4.441406 -13.957031 L 1.371094 -13.957031 L 1.371094 0 L 4.441406 0 L 4.441406 -5.628906 L 10.117188 -5.628906 L 10.117188 0 L 13.164062 0 L 13.164062 -13.957031 Z M 10.117188 -13.957031 "/></g></g></g><g fill="#ffffff" fill-opacity="1"><g transform="translate(141.778921, 213.894705)"><g><path d="M 9.910156 0 L 13.1875 0 L 8.164062 -13.957031 L 4.722656 -13.957031 L -0.300781 0 L 2.976562 0 L 3.839844 -2.628906 L 9.046875 -2.628906 Z M 4.652344 -5.1875 L 6.441406 -10.722656 L 8.234375 -5.1875 Z M 4.652344 -5.1875 "/></g></g></g><g fill="#ffffff" fill-opacity="1"><g transform="translate(157.007502, 213.894705)"><g><path d="M 10.09375 0 L 14.1875 0 L 7.464844 -7.746094 L 13.492188 -13.957031 L 9.535156 -13.957031 L 4.976562 -9.023438 L 4.441406 -9.023438 L 4.441406 -13.957031 L 1.371094 -13.957031 L 1.371094 0 L 4.441406 0 L 4.441406 -6.375 L 4.882812 -6.375 Z M 10.09375 0 "/></g></g></g><g fill="#ffffff" fill-opacity="1"><g transform="translate(173.050021, 213.894705)"><g><path d="M 9.910156 0 L 13.1875 0 L 8.164062 -13.957031 L 4.722656 -13.957031 L -0.300781 0 L 2.976562 0 L 3.839844 -2.628906 L 9.046875 -2.628906 Z M 4.652344 -5.1875 L 6.441406 -10.722656 L 8.234375 -5.1875 Z M 4.652344 -5.1875 "/></g></g></g><g fill="#ffffff" fill-opacity="1"><g transform="translate(188.278602, 213.894705)"><g><path d="M 8.652344 -5.746094 C 10.304688 -6.234375 11.46875 -7.769531 11.46875 -9.675781 C 11.46875 -12.050781 9.699219 -13.957031 7.304688 -13.957031 L 1.371094 -13.957031 L 1.371094 0 L 4.441406 0 L 4.441406 -5.394531 L 5.675781 -5.394531 L 9.117188 0 L 12.5625 0 Z M 6.839844 -7.933594 L 4.441406 -7.933594 L 4.441406 -11.234375 L 6.839844 -11.234375 C 7.816406 -11.234375 8.535156 -10.535156 8.535156 -9.582031 C 8.535156 -8.605469 7.816406 -7.933594 6.839844 -7.933594 Z M 6.839844 -7.933594 "/></g></g></g><g fill="#ffffff" fill-opacity="1"><g transform="translate(203.065339, 213.894705)"><g><path d="M 9.910156 0 L 13.1875 0 L 8.164062 -13.957031 L 4.722656 -13.957031 L -0.300781 0 L 2.976562 0 L 3.839844 -2.628906 L 9.046875 -2.628906 Z M 4.652344 -5.1875 L 6.441406 -10.722656 L 8.234375 -5.1875 Z M 4.652344 -5.1875 "/></g></g></g><g fill="#ffffff" fill-opacity="1"><g transform="translate(218.29392, 213.894705)"><g/></g></g><g fill="#ffffff" fill-opacity="1"><g transform="translate(226.22035, 213.894705)"><g><path d="M 8.023438 -7.652344 L 8.023438 -5.257812 L 11.863281 -5.257812 C 11.210938 -3.792969 9.769531 -2.816406 8.046875 -2.816406 C 5.699219 -2.816406 3.882812 -4.628906 3.882812 -6.976562 C 3.882812 -9.328125 5.699219 -11.140625 8.046875 -11.140625 C 9.699219 -11.140625 11.046875 -10.257812 11.746094 -8.933594 L 14.398438 -10.304688 C 13.1875 -12.582031 10.792969 -14.140625 8.046875 -14.140625 C 4.070312 -14.140625 0.882812 -10.933594 0.882812 -6.976562 C 0.882812 -3.023438 4.070312 0.1875 8.046875 0.1875 C 12.003906 0.1875 15.210938 -3.023438 15.210938 -6.976562 L 15.210938 -7.652344 Z M 8.023438 -7.652344 "/></g></g></g><g fill="#ffffff" fill-opacity="1"><g transform="translate(244.658162, 213.894705)"><g><path d="M 9.886719 -11.257812 L 9.886719 -13.957031 L 1.488281 -13.957031 L 1.488281 0 L 9.886719 0 L 9.886719 -2.699219 L 4.558594 -2.699219 L 4.558594 -5.628906 L 9.117188 -5.628906 L 9.117188 -8.328125 L 4.558594 -8.328125 L 4.558594 -11.257812 Z M 9.886719 -11.257812 "/></g></g></g><g fill="#ffffff" fill-opacity="1"><g transform="translate(257.840277, 213.894705)"><g><path d="M 8.023438 0.1875 C 12.003906 0.1875 15.1875 -3.023438 15.1875 -6.976562 C 15.1875 -10.933594 12.003906 -14.140625 8.023438 -14.140625 C 4.070312 -14.140625 0.859375 -10.933594 0.859375 -6.976562 C 0.859375 -3.023438 4.070312 0.1875 8.023438 0.1875 Z M 8.023438 -2.816406 C 5.675781 -2.816406 3.882812 -4.628906 3.882812 -6.976562 C 3.882812 -9.328125 5.675781 -11.140625 8.023438 -11.140625 C 10.398438 -11.140625 12.1875 -9.328125 12.1875 -6.976562 C 12.1875 -4.628906 10.398438 -2.816406 8.023438 -2.816406 Z M 8.023438 -2.816406 "/></g></g></g><g fill="#ffffff" fill-opacity="1"><g transform="translate(276.254835, 213.894705)"><g><path d="M 1.488281 0 L 4.558594 0 L 4.558594 -13.957031 L 1.488281 -13.957031 Z M 1.488281 0 "/></g></g></g><g fill="#ffffff" fill-opacity="1"><g transform="translate(284.623096, 213.894705)"><g><path d="M 11.398438 -13.957031 L 11.398438 -4.722656 L 4.535156 -13.957031 L 1.371094 -13.957031 L 1.371094 0 L 4.441406 0 L 4.441406 -9.257812 L 11.28125 0 L 14.445312 0 L 14.445312 -13.957031 Z M 11.398438 -13.957031 "/></g></g></g><g fill="#ffffff" fill-opacity="1"><g transform="translate(302.805098, 213.894705)"><g><path d="M 1.371094 0 L 5.976562 0 C 9.816406 0 12.957031 -3.117188 12.957031 -6.976562 C 12.957031 -10.839844 9.816406 -13.957031 5.976562 -13.957031 L 1.371094 -13.957031 Z M 4.441406 -2.722656 L 4.441406 -11.234375 L 5.953125 -11.234375 C 8.164062 -11.234375 9.886719 -9.398438 9.886719 -6.976562 C 9.886719 -4.558594 8.164062 -2.722656 5.953125 -2.722656 Z M 4.441406 -2.722656 "/></g></g></g><g fill="#ffffff" fill-opacity="1"><g transform="translate(318.963901, 213.894705)"><g><path d="M 8.023438 0.1875 C 12.003906 0.1875 15.1875 -3.023438 15.1875 -6.976562 C 15.1875 -10.933594 12.003906 -14.140625 8.023438 -14.140625 C 4.070312 -14.140625 0.859375 -10.933594 0.859375 -6.976562 C 0.859375 -3.023438 4.070312 0.1875 8.023438 0.1875 Z M 8.023438 -2.816406 C 5.675781 -2.816406 3.882812 -4.628906 3.882812 -6.976562 C 3.882812 -9.328125 5.675781 -11.140625 8.023438 -11.140625 C 10.398438 -11.140625 12.1875 -9.328125 12.1875 -6.976562 C 12.1875 -4.628906 10.398438 -2.816406 8.023438 -2.816406 Z M 8.023438 -2.816406 "/></g></g></g><g fill="#ffffff" fill-opacity="1"><g transform="translate(107.642509, 241.588695)"><g><path d="M 5.535156 -4.558594 C 6.328125 -4.921875 6.855469 -5.640625 6.855469 -6.601562 C 6.855469 -8.011719 5.746094 -9 4.363281 -9 L 1.09375 -9 L 1.09375 0 L 4.679688 0 C 6.046875 0 7.140625 -0.976562 7.140625 -2.371094 C 7.140625 -3.464844 6.480469 -4.246094 5.535156 -4.558594 Z M 5.894531 -6.523438 C 5.894531 -5.640625 5.160156 -4.964844 4.261719 -4.964844 L 2.039062 -4.964844 L 2.039062 -8.039062 L 4.261719 -8.039062 C 5.160156 -8.039062 5.894531 -7.410156 5.894531 -6.523438 Z M 4.558594 -0.960938 L 2.039062 -0.960938 L 2.039062 -4.035156 L 4.558594 -4.035156 C 5.445312 -4.035156 6.179688 -3.359375 6.179688 -2.476562 C 6.179688 -1.589844 5.445312 -0.960938 4.558594 -0.960938 Z M 4.558594 -0.960938 "/></g></g></g><g fill="#ffffff" fill-opacity="1"><g transform="translate(118.259502, 241.588695)"><g><path d="M 6.089844 -8.070312 L 6.089844 -9 L 1.171875 -9 L 1.171875 0 L 6.089844 0 L 6.089844 -0.929688 L 2.128906 -0.929688 L 2.128906 -4.035156 L 5.578125 -4.035156 L 5.578125 -4.964844 L 2.128906 -4.964844 L 2.128906 -8.070312 Z M 6.089844 -8.070312 "/></g></g></g><g fill="#ffffff" fill-opacity="1"><g transform="translate(128.021495, 241.588695)"><g><path d="M 4.738281 -4.109375 C 5.925781 -4.273438 6.824219 -5.265625 6.824219 -6.480469 C 6.824219 -7.890625 5.699219 -9 4.320312 -9 L 1.09375 -9 L 1.09375 0 L 2.054688 0 L 2.054688 -4.066406 L 3.75 -4.066406 L 6.300781 0 L 7.394531 0 Z M 2.054688 -4.980469 L 2.054688 -8.039062 L 4.261719 -8.039062 C 5.160156 -8.039062 5.863281 -7.410156 5.863281 -6.511719 C 5.863281 -5.59375 5.175781 -4.980469 4.261719 -4.980469 Z M 2.054688 -4.980469 "/></g></g></g><g fill="#ffffff" fill-opacity="1"><g transform="translate(138.32349, 241.588695)"><g><path d="M 5.386719 -4.769531 L 5.386719 -3.871094 L 9 -3.871094 C 8.714844 -2.128906 7.214844 -0.839844 5.398438 -0.839844 C 3.375 -0.839844 1.738281 -2.460938 1.738281 -4.5 C 1.738281 -6.539062 3.375 -8.160156 5.398438 -8.160156 C 6.765625 -8.160156 7.964844 -7.425781 8.578125 -6.316406 L 9.40625 -6.78125 C 8.625 -8.175781 7.125 -9.121094 5.398438 -9.121094 C 2.835938 -9.121094 0.78125 -7.050781 0.78125 -4.5 C 0.78125 -1.949219 2.835938 0.121094 5.398438 0.121094 C 7.949219 0.121094 10.019531 -1.949219 10.019531 -4.5 L 10.019531 -4.769531 Z M 5.386719 -4.769531 "/></g></g></g><g fill="#ffffff" fill-opacity="1"><g transform="translate(151.880481, 241.588695)"><g><path d="M 6.089844 -8.070312 L 6.089844 -9 L 1.171875 -9 L 1.171875 0 L 6.089844 0 L 6.089844 -0.929688 L 2.128906 -0.929688 L 2.128906 -4.035156 L 5.578125 -4.035156 L 5.578125 -4.964844 L 2.128906 -4.964844 L 2.128906 -8.070312 Z M 6.089844 -8.070312 "/></g></g></g><g fill="#ffffff" fill-opacity="1"><g transform="translate(161.642477, 241.588695)"><g><path d="M 4.738281 -4.109375 C 5.925781 -4.273438 6.824219 -5.265625 6.824219 -6.480469 C 6.824219 -7.890625 5.699219 -9 4.320312 -9 L 1.09375 -9 L 1.09375 0 L 2.054688 0 L 2.054688 -4.066406 L 3.75 -4.066406 L 6.300781 0 L 7.394531 0 Z M 2.054688 -4.980469 L 2.054688 -8.039062 L 4.261719 -8.039062 C 5.160156 -8.039062 5.863281 -7.410156 5.863281 -6.511719 C 5.863281 -5.59375 5.175781 -4.980469 4.261719 -4.980469 Z M 2.054688 -4.980469 "/></g></g></g><g fill="#ffffff" fill-opacity="1"><g transform="translate(171.94447, 241.588695)"><g><path d="M 6.523438 0 L 7.574219 0 L 4.320312 -9 L 3.253906 -9 L 0 0 L 1.050781 0 L 1.785156 -2.101562 L 5.789062 -2.101562 Z M 2.101562 -3.015625 L 3.796875 -7.859375 L 5.476562 -3.015625 Z M 2.101562 -3.015625 "/></g></g></g><g fill="#ffffff" fill-opacity="1"><g transform="translate(182.291462, 241.588695)"><g><path d="M 6.464844 0 L 7.800781 0 L 3.523438 -4.84375 L 7.636719 -9 L 6.300781 -9 L 2.683594 -5.308594 L 2.054688 -5.308594 L 2.054688 -9 L 1.09375 -9 L 1.09375 0 L 2.054688 0 L 2.054688 -4.410156 L 2.699219 -4.410156 Z M 6.464844 0 "/></g></g></g><g fill="#ffffff" fill-opacity="1"><g transform="translate(192.758457, 241.588695)"><g/></g></g><g fill="#ffffff" fill-opacity="1"><g transform="translate(199.14545, 241.588695)"><g><path d="M 5.535156 -4.558594 C 6.328125 -4.921875 6.855469 -5.640625 6.855469 -6.601562 C 6.855469 -8.011719 5.746094 -9 4.363281 -9 L 1.09375 -9 L 1.09375 0 L 4.679688 0 C 6.046875 0 7.140625 -0.976562 7.140625 -2.371094 C 7.140625 -3.464844 6.480469 -4.246094 5.535156 -4.558594 Z M 5.894531 -6.523438 C 5.894531 -5.640625 5.160156 -4.964844 4.261719 -4.964844 L 2.039062 -4.964844 L 2.039062 -8.039062 L 4.261719 -8.039062 C 5.160156 -8.039062 5.894531 -7.410156 5.894531 -6.523438 Z M 4.558594 -0.960938 L 2.039062 -0.960938 L 2.039062 -4.035156 L 4.558594 -4.035156 C 5.445312 -4.035156 6.179688 -3.359375 6.179688 -2.476562 C 6.179688 -1.589844 5.445312 -0.960938 4.558594 -0.960938 Z M 4.558594 -0.960938 "/></g></g></g><g fill="#ffffff" fill-opacity="1"><g transform="translate(209.762448, 241.588695)"><g><path d="M 6.089844 -8.070312 L 6.089844 -9 L 1.171875 -9 L 1.171875 0 L 6.089844 0 L 6.089844 -0.929688 L 2.128906 -0.929688 L 2.128906 -4.035156 L 5.578125 -4.035156 L 5.578125 -4.964844 L 2.128906 -4.964844 L 2.128906 -8.070312 Z M 6.089844 -8.070312 "/></g></g></g><g fill="#ffffff" fill-opacity="1"><g transform="translate(219.52444, 241.588695)"><g><path d="M 4.738281 -4.109375 C 5.925781 -4.273438 6.824219 -5.265625 6.824219 -6.480469 C 6.824219 -7.890625 5.699219 -9 4.320312 -9 L 1.09375 -9 L 1.09375 0 L 2.054688 0 L 2.054688 -4.066406 L 3.75 -4.066406 L 6.300781 0 L 7.394531 0 Z M 2.054688 -4.980469 L 2.054688 -8.039062 L 4.261719 -8.039062 C 5.160156 -8.039062 5.863281 -7.410156 5.863281 -6.511719 C 5.863281 -5.59375 5.175781 -4.980469 4.261719 -4.980469 Z M 2.054688 -4.980469 "/></g></g></g><g fill="#ffffff" fill-opacity="1"><g transform="translate(229.826434, 241.588695)"><g><path d="M 3.359375 0.121094 C 4.890625 0.121094 6.136719 -0.796875 6.136719 -2.371094 C 6.136719 -5.429688 1.753906 -4.679688 1.753906 -6.824219 C 1.753906 -7.726562 2.488281 -8.160156 3.328125 -8.160156 C 4.019531 -8.160156 4.589844 -7.875 4.949219 -7.363281 L 5.699219 -7.996094 C 5.203125 -8.625 4.335938 -9.121094 3.300781 -9.121094 C 1.921875 -9.121094 0.796875 -8.21875 0.796875 -6.75 C 0.796875 -3.855469 5.175781 -4.574219 5.175781 -2.339844 C 5.175781 -1.378906 4.378906 -0.839844 3.375 -0.839844 C 2.355469 -0.839844 1.621094 -1.394531 1.304688 -2.21875 L 0.433594 -1.710938 C 0.898438 -0.601562 2.023438 0.121094 3.359375 0.121094 Z M 3.359375 0.121094 "/></g></g></g><g fill="#ffffff" fill-opacity="1"><g transform="translate(239.168429, 241.588695)"><g><path d="M 6.523438 0 L 7.574219 0 L 4.320312 -9 L 3.253906 -9 L 0 0 L 1.050781 0 L 1.785156 -2.101562 L 5.789062 -2.101562 Z M 2.101562 -3.015625 L 3.796875 -7.859375 L 5.476562 -3.015625 Z M 2.101562 -3.015625 "/></g></g></g><g fill="#ffffff" fill-opacity="1"><g transform="translate(249.51542, 241.588695)"><g><path d="M 6.074219 -9 L 0.136719 -9 L 0.136719 -8.039062 L 2.625 -8.039062 L 2.625 0 L 3.585938 0 L 3.585938 -8.039062 L 6.074219 -8.039062 Z M 6.074219 -9 "/></g></g></g><g fill="#ffffff" fill-opacity="1"><g transform="translate(258.497418, 241.588695)"><g><path d="M 4.425781 0.121094 C 6.390625 0.121094 7.816406 -1.183594 7.816406 -2.953125 L 7.816406 -9 L 6.855469 -9 L 6.855469 -3.105469 C 6.855469 -1.800781 5.820312 -0.839844 4.425781 -0.839844 C 3.03125 -0.839844 2.011719 -1.800781 2.011719 -3.105469 L 2.011719 -9 L 1.050781 -9 L 1.050781 -2.953125 C 1.050781 -1.183594 2.476562 0.121094 4.425781 0.121094 Z M 4.425781 0.121094 "/></g></g></g><g clip-path="url(#2605c3f083)"><path fill="#007fc8" d="M 149.679688 186.117188 L 179.648438 161.425781 L 187.390625 169.175781 L 187.417969 169.148438 L 187.441406 169.175781 L 210.554688 146.03125 L 210.554688 186.117188 L 225.292969 186.117188 L 225.292969 110.40625 L 149.679688 186.117188 " fill-opacity="1" fill-rule="nonzero"/></g><g clip-path="url(#a48c0170ec)"><path fill="#fbc108" d="M 164.277344 163.25 L 164.277344 146.03125 L 172.878906 154.644531 L 183.300781 144.210938 L 183.296875 144.207031 L 210.792969 116.675781 L 180.808594 141.378906 L 180.648438 141.554688 L 149.539062 110.40625 L 149.539062 178.011719 L 164.277344 163.253906 L 164.277344 163.25 " fill-opacity="1" fill-rule="nonzero"/></g></svg>